<svg xmlns="http://www.w3.org/2000/svg" data-name="Layer 3" viewBox="0 0 64 64" id="ocean-acidification"><polygon fill="#785349" points="63 30 55 33 53 38 48 40 45 47 42 63 63 63 63 30"></polygon><polygon fill="#785349" points="37 63 31 52 23 50 20 45 13 43 11.935 37.674 8.681 34.855 6 37 1 37 1 63 37 63"></polygon><polygon fill="#916658" points="30 56.145 22 54.145 19 49.145 12 47.145 10.935 41.819 7.681 39 5 41.145 1 41.145 1 63 33.739 63 30 56.145"></polygon><circle cx="51" cy="13" r="11" fill="#66c3e9"></circle><path fill="#8adef9" d="M53.314,21.371l.721.577a10.966,10.966,0,0,0,5.671-2.242A10.987,10.987,0,0,0,44.294,4.294a10.957,10.957,0,0,0,1.23,14.759c.342-.033.686-.053,1.032-.053A10.856,10.856,0,0,1,53.314,21.371Z"></path><polygon fill="#916658" points="53 38 51 46 45 47 48 40 53 38"></polygon><path fill="#916658" d="M56.948,47.316l-1.9-.632,2-6A1,1,0,0,1,58,40h5v2H58.721Z"></path><path fill="#82ab00" d="M21.666 56.549a4.761 4.761 0 00-2.117 2.118 2.736 2.736 0 01-.929 1.051l-1.152.769a19.477 19.477 0 00.523-3.893 7.772 7.772 0 002.9-3.147l-1.789-.894a5.748 5.748 0 01-2.552 2.552A1 1 0 0016 56a17.64 17.64 0 01-.12 1.938l-.094-.328a9.984 9.984 0 00-2.733-4.479l.394-.788A.615.615 0 0114 52a2.608 2.608 0 002.342-1.447l.552-1.106-1.789-.894-.552 1.1A.615.615 0 0114 50a2.607 2.607 0 00-2.342 1.447l-.117.235A2.992 2.992 0 0111 50H9a5.024 5.024 0 002 4 7.958 7.958 0 012.467 3.11A7.613 7.613 0 0011.1 56.2a2.037 2.037 0 01-1.043-.558 4.039 4.039 0 00-1.05-.757A1.811 1.811 0 018 53.258V53H6v.258a3.8 3.8 0 002.11 3.415 2.021 2.021 0 01.531.383 4.083 4.083 0 002.12 1.116 5.528 5.528 0 013.177 1.919l-.329-.219A5.156 5.156 0 0010.733 59a3.164 3.164 0 01-2.252-.933l-.774-.774L6.293 58.707l.774.774A5.151 5.151 0 0010.733 61a3.17 3.17 0 011.766.535l1.115.742A4.286 4.286 0 0015.946 63l.015 0H16a4.3 4.3 0 002.387-.723l1.342-.9a4.724 4.724 0 001.609-1.821 2.749 2.749 0 011.222-1.223l.887-.443-.894-1.79zM54.553 56.105l-.887.444a4.761 4.761 0 00-2.117 2.118 2.736 2.736 0 01-.929 1.051l-1.152.769a19.477 19.477 0 00.523-3.893 7.772 7.772 0 002.9-3.147l-1.789-.894a5.748 5.748 0 01-2.552 2.552A1 1 0 0048 56a17.64 17.64 0 01-.12 1.938l-.094-.328A9.979 9.979 0 0044.2 52.4 3.014 3.014 0 0143 50H41a5.024 5.024 0 002 4 7.958 7.958 0 012.467 3.11A7.613 7.613 0 0043.1 56.2a2.037 2.037 0 01-1.043-.558 4.039 4.039 0 00-1.05-.757A1.811 1.811 0 0140 53.258V53H38v.258a3.8 3.8 0 002.11 3.415 2.021 2.021 0 01.531.383 4.083 4.083 0 002.12 1.116 5.528 5.528 0 013.177 1.919l-.329-.219A5.156 5.156 0 0042.733 59a3.164 3.164 0 01-2.252-.933l-.774-.774-1.414 1.414.774.774A5.151 5.151 0 0042.733 61a3.17 3.17 0 011.766.535l1.115.742A4.286 4.286 0 0047.946 63l.015 0H48a4.3 4.3 0 002.387-.723l1.342-.9a4.724 4.724 0 001.609-1.821 2.749 2.749 0 011.222-1.223l.887-.443z"></path><path fill="#0059be" d="M34,32.68a2.906,2.906,0,0,1-.99,2.19l-3.15,2.75A13.638,13.638,0,0,1,20.87,41a13.678,13.678,0,0,1-8.64-3.09L10,36.09A13.645,13.645,0,0,1,5,25.54c0-.42.02-.84.06-1.25A7.974,7.974,0,0,1,2,18V16l4.75,2.85L10,13A6.768,6.768,0,0,1,7,7.39V5h.76a5.421,5.421,0,0,1,3.83,1.59A4.829,4.829,0,0,1,13,10h7a3.995,3.995,0,0,1-4,4H13a8.7,8.7,0,0,0,1.16,4.32,8.608,8.608,0,0,0,3.18,3.16l15.2,8.68A2.915,2.915,0,0,1,34,32.68Z"></path><path fill="#006bdb" d="M32.54,30.16l-15.2-8.68a8.608,8.608,0,0,1-3.18-3.16A8.7,8.7,0,0,1,13,14h3a3.995,3.995,0,0,0,4-4H13a4.829,4.829,0,0,0-1.41-3.41A5.421,5.421,0,0,0,7.76,5H7V7.39A6.768,6.768,0,0,0,10,13L6.75,18.85,3.036,16.622A7.971,7.971,0,0,0,6.06,22.29c-.04.41-.06.83-.06,1.25a13.645,13.645,0,0,0,5,10.55l2.23,1.82a13.635,13.635,0,0,0,17.63-.29L33.977,32.9c.005-.073.023-.145.023-.219A2.915,2.915,0,0,0,32.54,30.16Z"></path><rect width="2" height="6.122" x="8.375" y="17.364" fill="#0059be" transform="rotate(-59.037 9.375 20.425)"></rect><path fill="#fff" d="M60 17H56a1 1 0 01-1-1V13a1 1 0 011-1h2V11H55V9h4a1 1 0 011 1v3a1 1 0 01-1 1H57v1h3zM47 17H43a1 1 0 01-1-1V10a1 1 0 011-1h4v2H44v4h3zM53 17H49a1 1 0 01-1-1V12a1 1 0 011-1h4a1 1 0 011 1v4A1 1 0 0153 17zm-3-2h2V13H50z"></path><path fill="#e73844" d="M58,25l1,4-4-3-2.31,1.848A9.823,9.823,0,0,1,46.555,30h0a9.815,9.815,0,0,1-6.286-2.276L37,25l3.269-2.724A9.815,9.815,0,0,1,46.555,20h0a9.823,9.823,0,0,1,6.135,2.152L55,24l4-3Z"></path><polygon fill="#ff4d55" points="58.385 26.538 58 25 59 21 55 24 58.385 26.538"></polygon><path fill="#ff4d55" d="M46.555,20h0a9.815,9.815,0,0,0-6.286,2.276L38.2,24l2.069,1.724A9.815,9.815,0,0,0,46.555,28h0a9.823,9.823,0,0,0,6.135-2.152L55,24l-2.31-1.848A9.823,9.823,0,0,0,46.555,20Z"></path><circle cx="42" cy="39" r="2" fill="#66c3e9"></circle><circle cx="33" cy="9" r="2" fill="#66c3e9"></circle><circle cx="18" cy="5" r="2" fill="#66c3e9"></circle><path fill="#c1cfe8" d="M24.712,30h0a8.892,8.892,0,0,0-3.3.636A19.075,19.075,0,0,1,14.327,32a6.655,6.655,0,0,1-6.084-3.954L7.09,25.452l0-.007A8.012,8.012,0,0,1,5.06,24.29c-.04.41-.06.83-.06,1.25a13.645,13.645,0,0,0,5,10.55l2.23,1.82a13.635,13.635,0,0,0,17.63-.29l3.15-2.75a2.729,2.729,0,0,0,.3-.322L30.5,32.14A8.886,8.886,0,0,0,24.712,30Z"></path><path fill="#d7e0ef" d="M11,34.09l2.23,1.82a13.635,13.635,0,0,0,17.63-.29l1.831-1.6L30.5,32.14A8.886,8.886,0,0,0,24.712,30h0a8.892,8.892,0,0,0-3.3.636A19.075,19.075,0,0,1,14.327,32a6.655,6.655,0,0,1-6.084-3.954L7.09,25.452l0-.007a8.247,8.247,0,0,1-1.008-.481A13.648,13.648,0,0,0,11,34.09Z"></path><path fill="#e73844" d="M44.832,22.445l-1.664,1.11,1.063,1.594a4.581,4.581,0,0,1,.384,4.379l-.113.246A9.783,9.783,0,0,0,46.555,30h.017A6.528,6.528,0,0,0,45.9,24.04Z"></path><path fill="#785349" d="M1,44.02l4.15.83L6.019,49.2,7.98,48.8l-1-5A1,1,0,0,0,6.2,43.02L1,41.98Z"></path><rect width="544" height="256" x="-288" fill="none"></rect></svg>